<svg id="svg" version="1.1" xmlns="http://www.w3.org/2000/svg" xmlns:xlink="http://www.w3.org/1999/xlink" width="400" height="399.83993597438973" viewBox="0, 0, 400,399.83993597438973"><g id="svgg"><path id="path0" d="M83.945 220.443 C 83.925 220.463,83.705 220.522,83.455 220.573 C 83.205 220.625,82.799 220.708,82.553 220.759 C 82.308 220.809,82.045 220.889,81.971 220.935 C 81.896 220.981,81.671 221.050,81.471 221.089 C 81.271 221.127,81.065 221.224,81.012 221.304 C 80.960 221.383,80.716 221.498,80.470 221.558 C 80.224 221.618,79.892 221.798,79.732 221.959 C 79.572 222.119,79.435 222.213,79.429 222.168 C 79.399 221.963,77.134 223.251,76.974 223.564 C 76.874 223.758,76.607 224.116,76.380 224.359 C 76.153 224.603,75.956 224.865,75.942 224.943 C 75.928 225.020,75.860 225.065,75.792 225.042 C 75.723 225.019,75.667 225.069,75.667 225.152 C 75.667 225.236,75.423 225.559,75.125 225.870 C 74.827 226.181,74.396 226.689,74.167 226.999 C 73.938 227.309,73.619 227.678,73.458 227.818 C 73.298 227.959,73.167 228.170,73.167 228.287 C 73.167 228.404,73.093 228.500,73.003 228.500 C 72.913 228.500,72.793 228.688,72.735 228.917 C 72.678 229.146,72.514 229.333,72.371 229.333 C 72.228 229.333,72.157 229.380,72.214 229.436 C 72.271 229.493,72.021 229.805,71.658 230.130 C 71.296 230.455,71.000 230.781,71.000 230.853 C 71.000 230.926,70.701 231.308,70.335 231.701 C 69.970 232.095,69.670 232.472,69.669 232.540 C 69.666 232.684,69.051 233.434,68.625 233.814 C 68.465 233.957,68.333 234.132,68.333 234.204 C 68.333 234.275,68.202 234.473,68.042 234.644 C 67.881 234.814,67.525 235.226,67.250 235.557 C 66.975 235.889,66.544 236.381,66.292 236.651 C 66.040 236.920,65.833 237.190,65.833 237.249 C 65.833 237.309,65.740 237.455,65.625 237.574 C 65.510 237.694,65.120 238.144,64.758 238.574 C 64.396 239.005,63.946 239.533,63.758 239.748 C 63.371 240.192,62.904 240.770,62.417 241.411 C 62.233 241.651,61.846 242.098,61.556 242.404 C 61.267 242.709,60.909 243.193,60.761 243.480 C 60.613 243.766,60.406 244.000,60.301 244.000 C 60.197 244.000,60.152 244.041,60.202 244.091 C 60.252 244.141,60.020 244.464,59.688 244.809 C 59.355 245.154,58.971 245.606,58.833 245.812 C 58.696 246.018,58.228 246.576,57.793 247.052 C 57.359 247.528,56.960 248.048,56.907 248.208 C 56.854 248.369,56.741 248.500,56.655 248.500 C 56.570 248.500,56.519 248.567,56.542 248.649 C 56.565 248.730,56.403 248.955,56.183 249.149 C 55.963 249.342,55.843 249.500,55.918 249.500 C 55.992 249.500,55.720 249.819,55.313 250.208 C 54.906 250.598,54.061 251.479,53.435 252.167 C 52.810 252.854,51.537 254.213,50.607 255.185 C 48.244 257.658,46.596 259.403,45.344 260.757 C 44.398 261.781,41.509 264.760,32.745 273.750 C 28.146 278.468,26.775 279.830,26.700 279.756 C 26.659 279.714,26.642 272.871,26.663 264.549 C 26.720 241.839,26.704 234.972,26.585 232.583 C 26.413 229.120,26.263 227.623,26.054 227.287 C 25.984 227.175,25.905 226.944,25.878 226.773 C 25.852 226.603,25.675 226.246,25.487 225.982 C 25.298 225.717,25.201 225.500,25.271 225.500 C 25.340 225.500,25.251 225.390,25.074 225.255 C 24.896 225.121,24.807 225.008,24.876 225.005 C 24.945 225.002,24.628 224.644,24.171 224.208 C 22.264 222.391,21.566 222.115,19.135 222.216 C 16.349 222.332,14.237 222.945,14.041 223.695 C 14.000 223.850,13.865 224.016,13.741 224.064 C 13.371 224.206,12.502 226.156,12.269 227.367 C 12.229 227.578,12.123 228.065,12.034 228.450 C 11.945 228.835,11.910 229.188,11.957 229.235 C 12.003 229.281,11.982 229.453,11.909 229.618 C 11.836 229.782,11.762 230.067,11.744 230.250 C 11.727 230.433,11.667 230.803,11.612 231.071 C 11.407 232.067,11.191 233.258,11.172 233.500 C 11.136 233.969,11.035 235.082,10.930 236.167 C 10.683 238.724,10.614 241.234,10.657 246.167 C 10.726 254.065,10.698 261.881,10.576 268.750 C 10.432 276.794,10.435 314.758,10.580 319.917 C 10.796 327.660,10.930 330.584,11.239 334.333 C 11.280 334.837,11.353 335.775,11.400 336.417 C 11.554 338.517,11.767 340.924,11.916 342.250 C 11.957 342.617,12.034 343.592,12.086 344.417 C 12.139 345.242,12.206 346.142,12.236 346.417 C 12.266 346.692,12.340 347.517,12.401 348.250 C 12.604 350.676,13.012 354.246,13.116 354.500 C 13.172 354.637,13.231 354.825,13.248 354.917 C 13.374 355.624,13.565 356.167,13.687 356.167 C 13.768 356.167,13.833 356.276,13.833 356.409 C 13.833 356.784,14.200 357.499,14.346 357.409 C 14.417 357.365,14.525 357.481,14.584 357.668 C 14.643 357.855,15.112 358.325,15.625 358.712 L 16.558 359.417 18.154 359.405 C 20.285 359.390,21.338 358.987,22.637 357.686 C 23.721 356.599,24.328 355.836,24.331 355.556 C 24.332 355.449,24.395 355.336,24.470 355.306 C 24.939 355.115,27.000 351.353,27.000 350.687 C 27.000 350.503,27.067 350.311,27.150 350.260 C 27.439 350.082,27.712 348.522,27.999 345.417 C 28.149 343.792,28.092 331.450,27.933 331.193 C 27.889 331.122,27.842 330.543,27.830 329.907 C 27.817 329.271,27.736 327.063,27.651 325.000 C 27.456 320.293,27.336 314.145,27.320 307.960 L 27.307 303.170 28.398 302.043 C 30.488 299.884,31.925 298.365,33.167 297.000 C 33.854 296.245,34.802 295.242,35.273 294.772 C 35.743 294.302,36.325 293.625,36.564 293.268 C 36.804 292.912,37.000 292.674,37.000 292.740 C 37.000 292.805,37.206 292.609,37.457 292.304 C 37.709 292.000,38.028 291.659,38.166 291.547 C 38.304 291.435,38.360 291.342,38.291 291.339 C 38.142 291.332,39.354 290.167,39.510 290.167 C 39.654 290.167,41.020 291.148,41.340 291.482 C 42.114 292.289,44.916 295.632,45.283 296.186 C 45.518 296.542,45.771 296.833,45.844 296.833 C 45.918 296.833,46.023 296.977,46.079 297.152 C 46.179 297.469,46.731 298.240,47.619 299.307 C 47.875 299.614,48.083 299.919,48.083 299.986 C 48.083 300.052,48.215 300.238,48.375 300.399 C 48.535 300.559,48.667 300.742,48.667 300.805 C 48.667 300.868,48.836 301.107,49.043 301.335 C 49.250 301.563,49.562 301.975,49.736 302.250 C 49.910 302.525,50.153 302.810,50.276 302.883 C 50.399 302.957,50.500 303.088,50.500 303.175 C 50.500 303.262,50.631 303.472,50.792 303.642 C 51.308 304.187,51.667 304.667,51.667 304.811 C 51.667 304.888,51.854 305.154,52.083 305.401 C 52.313 305.648,52.500 305.914,52.500 305.993 C 52.500 306.133,53.223 307.011,53.966 307.774 C 54.176 307.990,54.296 308.167,54.232 308.167 C 54.168 308.167,54.289 308.317,54.500 308.500 C 54.711 308.683,54.830 308.833,54.764 308.833 C 54.697 308.833,54.742 308.939,54.863 309.069 C 54.984 309.199,55.271 309.552,55.500 309.854 C 55.729 310.156,56.254 310.826,56.667 311.344 C 57.079 311.861,57.567 312.496,57.750 312.754 C 57.933 313.012,58.290 313.433,58.542 313.689 C 58.794 313.946,59.000 314.233,59.000 314.328 C 59.000 314.422,59.075 314.500,59.167 314.500 C 59.258 314.500,59.333 314.591,59.333 314.702 C 59.333 314.814,59.486 315.058,59.672 315.244 C 59.859 315.431,60.504 316.221,61.107 317.000 C 61.709 317.779,62.455 318.650,62.763 318.935 C 63.072 319.220,63.282 319.495,63.231 319.547 C 63.180 319.598,63.295 319.723,63.486 319.826 C 63.677 319.928,63.833 320.113,63.833 320.237 C 63.833 320.360,64.021 320.585,64.250 320.735 C 64.479 320.885,64.667 321.114,64.667 321.244 C 64.667 321.375,64.802 321.579,64.967 321.699 C 65.132 321.819,65.385 322.089,65.530 322.300 C 65.674 322.510,66.195 323.118,66.688 323.651 C 67.851 324.910,68.470 325.645,69.074 326.484 C 69.343 326.860,69.675 327.167,69.810 327.167 C 69.945 327.167,70.012 327.210,69.958 327.264 C 69.905 327.317,69.986 327.492,70.139 327.652 C 70.292 327.813,70.754 328.345,71.167 328.837 C 71.579 329.328,72.329 330.193,72.833 330.759 C 73.337 331.326,74.162 332.261,74.667 332.837 C 75.171 333.414,75.974 334.309,76.451 334.825 C 76.928 335.342,77.474 335.949,77.664 336.174 C 78.029 336.607,80.653 339.426,82.125 340.968 C 82.606 341.472,83.000 341.931,83.000 341.989 C 83.000 342.047,83.206 342.217,83.458 342.366 C 83.711 342.515,84.404 343.201,85.000 343.891 C 85.596 344.581,86.134 345.150,86.196 345.156 C 86.258 345.162,86.752 345.598,87.293 346.125 C 88.987 347.776,91.125 349.713,91.444 349.888 C 91.612 349.980,92.133 350.381,92.601 350.778 C 93.070 351.175,93.501 351.500,93.560 351.500 C 93.619 351.500,93.811 351.631,93.988 351.792 C 94.526 352.280,94.815 352.500,94.917 352.500 C 94.970 352.500,95.105 352.578,95.215 352.673 C 96.032 353.375,100.464 355.709,100.702 355.562 C 100.774 355.517,100.833 355.560,100.833 355.657 C 100.833 355.754,100.968 355.833,101.133 355.833 C 101.298 355.833,101.505 355.901,101.592 355.984 C 101.719 356.105,103.297 356.576,104.083 356.727 C 104.175 356.745,104.327 356.808,104.421 356.866 C 104.598 356.977,106.829 357.229,107.417 357.205 C 108.668 357.153,109.654 356.990,110.083 356.765 C 110.358 356.620,110.672 356.502,110.779 356.501 C 110.986 356.500,113.405 355.442,113.833 355.165 C 113.971 355.076,114.346 354.858,114.667 354.680 C 116.312 353.769,117.020 351.432,116.231 349.519 C 115.978 348.907,114.353 347.135,114.155 347.257 C 114.089 347.298,113.990 347.215,113.935 347.072 C 113.881 346.929,113.765 346.856,113.679 346.909 C 113.593 346.962,113.423 346.873,113.301 346.711 C 113.027 346.349,112.769 346.190,111.083 345.343 C 110.350 344.975,109.638 344.605,109.500 344.520 C 109.126 344.289,107.004 343.306,106.779 343.259 C 106.107 343.120,105.667 342.944,105.667 342.815 C 105.667 342.734,105.610 342.683,105.542 342.704 C 105.403 342.745,103.288 341.698,102.250 341.074 C 101.883 340.854,101.471 340.620,101.333 340.554 C 101.196 340.489,100.988 340.341,100.871 340.225 C 100.754 340.110,100.210 339.738,99.662 339.400 C 99.115 339.062,98.667 338.717,98.667 338.633 C 98.667 338.549,98.601 338.521,98.520 338.571 C 98.439 338.621,98.128 338.361,97.829 337.994 C 97.529 337.627,97.253 337.359,97.213 337.398 C 97.174 337.437,96.743 337.082,96.255 336.609 C 95.767 336.137,94.836 335.262,94.188 334.667 C 93.539 334.071,93.006 333.500,93.004 333.398 C 93.002 333.296,92.419 332.664,91.708 331.993 C 90.998 331.322,90.417 330.724,90.417 330.663 C 90.417 330.601,90.060 330.205,89.625 329.782 C 89.190 329.359,88.833 328.967,88.833 328.911 C 88.833 328.855,88.740 328.707,88.625 328.582 C 88.510 328.457,87.967 327.852,87.417 327.237 C 86.867 326.622,86.135 325.821,85.792 325.457 C 85.448 325.092,85.167 324.732,85.167 324.657 C 85.167 324.581,84.803 324.140,84.358 323.676 C 83.914 323.213,83.580 322.833,83.616 322.833 C 83.652 322.833,83.341 322.487,82.924 322.065 C 82.508 321.642,82.167 321.229,82.167 321.148 C 82.167 321.067,82.035 320.868,81.875 320.706 C 81.715 320.545,81.287 320.039,80.926 319.581 C 80.564 319.124,80.114 318.590,79.926 318.395 C 79.737 318.200,79.433 317.831,79.250 317.576 C 79.067 317.320,78.579 316.686,78.167 316.167 C 77.754 315.647,77.267 315.012,77.083 314.756 C 76.900 314.500,76.579 314.099,76.371 313.866 C 76.162 313.633,75.837 313.193,75.649 312.888 C 75.460 312.583,75.242 312.333,75.164 312.333 C 75.086 312.333,74.977 312.190,74.922 312.015 C 74.866 311.841,74.527 311.412,74.168 311.064 C 73.808 310.715,73.548 310.396,73.590 310.355 C 73.631 310.314,73.514 310.174,73.329 310.045 C 73.145 309.916,73.038 309.741,73.090 309.655 C 73.143 309.570,73.069 309.500,72.927 309.500 C 72.778 309.500,72.667 309.358,72.667 309.168 C 72.667 308.986,72.517 308.742,72.333 308.628 C 72.150 308.513,72.000 308.364,72.000 308.295 C 72.000 308.144,71.601 307.656,70.875 306.917 C 70.577 306.614,70.333 306.311,70.333 306.242 C 70.333 306.174,70.052 305.775,69.708 305.357 C 69.365 304.938,68.879 304.274,68.629 303.881 C 68.379 303.488,68.102 303.167,68.015 303.167 C 67.927 303.167,67.813 303.030,67.760 302.864 C 67.707 302.697,67.337 302.210,66.937 301.781 C 66.537 301.351,66.256 300.999,66.313 300.997 C 66.370 300.996,66.339 300.940,66.244 300.872 C 66.102 300.772,64.378 298.687,63.753 297.859 C 63.660 297.736,63.415 297.451,63.208 297.227 C 63.002 297.002,62.833 296.779,62.833 296.731 C 62.833 296.682,62.740 296.544,62.625 296.424 C 62.240 296.019,61.033 294.596,59.765 293.052 C 59.074 292.210,58.387 291.453,58.239 291.371 C 58.091 291.288,57.966 291.152,57.961 291.068 C 57.955 290.985,57.665 290.617,57.316 290.250 C 54.903 287.718,52.444 284.906,51.777 283.917 C 50.951 282.692,50.201 281.629,49.220 280.293 C 48.708 279.595,48.661 279.455,48.858 279.207 C 48.982 279.049,49.158 278.822,49.250 278.700 C 49.342 278.579,49.623 278.284,49.875 278.045 C 50.127 277.807,50.297 277.575,50.253 277.531 C 50.209 277.487,50.304 277.330,50.464 277.184 C 50.917 276.768,52.887 274.490,53.429 273.755 C 53.697 273.392,54.179 272.813,54.500 272.470 C 55.174 271.749,55.680 271.153,56.306 270.342 C 56.550 270.026,56.903 269.613,57.089 269.425 C 57.276 269.237,57.684 268.746,57.997 268.333 C 58.310 267.921,58.979 267.154,59.485 266.628 C 59.991 266.103,60.523 265.444,60.668 265.164 C 60.813 264.883,60.985 264.707,61.049 264.771 C 61.114 264.836,61.167 264.805,61.167 264.703 C 61.167 264.601,61.354 264.307,61.583 264.050 C 62.856 262.622,63.255 262.173,63.926 261.417 C 64.333 260.958,64.666 260.495,64.666 260.387 C 64.666 260.279,64.854 260.043,65.083 259.863 C 65.313 259.683,65.500 259.476,65.500 259.402 C 65.500 259.329,65.781 258.996,66.125 258.661 C 66.469 258.326,66.900 257.849,67.083 257.600 C 67.267 257.352,67.623 256.953,67.875 256.713 C 68.127 256.474,68.333 256.187,68.333 256.075 C 68.333 255.963,68.527 255.745,68.764 255.589 C 69.002 255.434,69.156 255.267,69.108 255.219 C 69.060 255.171,69.391 254.746,69.844 254.274 C 70.296 253.803,70.666 253.366,70.666 253.304 C 70.667 253.243,70.873 252.978,71.125 252.716 C 71.377 252.454,71.846 251.915,72.167 251.519 C 72.487 251.122,72.900 250.630,73.083 250.424 C 73.267 250.218,73.754 249.651,74.167 249.163 C 74.579 248.676,75.029 248.156,75.167 248.009 C 75.444 247.712,76.031 246.990,76.667 246.165 C 76.896 245.868,77.287 245.409,77.536 245.146 C 77.785 244.882,77.951 244.667,77.905 244.667 C 77.860 244.667,78.087 244.402,78.411 244.078 C 78.735 243.754,79.000 243.424,79.000 243.345 C 79.000 243.266,79.264 242.969,79.587 242.686 C 79.910 242.402,80.364 241.891,80.596 241.549 C 81.016 240.930,81.102 240.825,81.897 239.958 C 82.129 239.706,82.295 239.500,82.266 239.500 C 82.180 239.500,84.194 237.503,85.435 236.356 C 86.067 235.773,86.851 235.042,87.179 234.731 C 87.506 234.421,87.858 234.167,87.959 234.167 C 88.061 234.167,88.317 233.924,88.528 233.627 C 88.906 233.097,89.062 232.907,89.773 232.114 C 91.211 230.509,92.195 226.850,91.648 225.137 C 91.550 224.833,91.435 224.471,91.391 224.333 C 91.348 224.196,91.308 224.046,91.304 224.000 C 91.300 223.954,91.155 223.718,90.982 223.474 C 90.808 223.231,90.667 222.981,90.667 222.920 C 90.667 222.725,89.395 221.500,89.193 221.500 C 89.087 221.500,89.000 221.439,89.000 221.365 C 89.000 220.793,84.430 219.959,83.945 220.443 M321.632 220.917 C 321.605 220.940,321.078 221.006,320.461 221.064 C 318.979 221.203,317.760 221.472,316.856 221.859 C 316.451 222.033,316.089 222.144,316.051 222.107 C 315.968 222.023,313.805 222.746,313.289 223.029 C 313.084 223.142,312.812 223.251,312.683 223.273 C 312.555 223.294,312.405 223.372,312.350 223.447 C 312.295 223.522,312.137 223.607,312.000 223.637 C 311.862 223.666,311.406 223.910,310.985 224.179 C 310.565 224.447,310.142 224.667,310.045 224.667 C 309.948 224.667,309.826 224.780,309.772 224.918 C 309.719 225.057,309.605 225.150,309.519 225.127 C 309.433 225.103,309.225 225.178,309.056 225.293 C 308.888 225.409,308.075 225.943,307.250 226.479 C 306.425 227.016,305.459 227.728,305.104 228.061 C 304.749 228.394,304.401 228.667,304.331 228.667 C 304.261 228.667,304.027 228.891,303.810 229.165 C 303.594 229.439,303.340 229.664,303.246 229.665 C 302.905 229.668,297.810 235.010,296.412 236.830 C 295.956 237.424,295.452 238.057,295.292 238.236 C 295.131 238.416,295.000 238.627,295.000 238.705 C 295.000 238.859,294.768 239.164,294.260 239.675 C 294.083 239.854,294.000 240.000,294.077 240.000 C 294.155 240.000,294.056 240.140,293.859 240.311 C 293.661 240.482,293.500 240.707,293.500 240.811 C 293.500 240.915,293.425 241.000,293.333 241.000 C 293.242 241.000,293.167 241.106,293.167 241.236 C 293.167 241.366,293.110 241.497,293.042 241.528 C 292.860 241.608,291.833 243.147,291.833 243.338 C 291.833 243.427,291.760 243.500,291.670 243.500 C 291.580 243.500,291.459 243.688,291.402 243.917 C 291.344 244.146,291.235 244.333,291.160 244.333 C 291.013 244.333,290.744 244.996,290.802 245.213 C 290.821 245.284,290.723 245.386,290.585 245.439 C 290.447 245.492,290.333 245.635,290.333 245.756 C 290.333 245.877,290.231 246.079,290.106 246.204 C 289.870 246.440,289.000 248.000,289.000 248.187 C 289.000 248.245,288.740 248.725,288.422 249.254 C 288.103 249.782,287.883 250.279,287.931 250.357 C 287.980 250.436,287.954 250.500,287.874 250.500 C 287.697 250.500,286.778 252.383,286.778 252.744 C 286.778 252.885,286.703 253.000,286.611 253.000 C 286.519 253.000,286.493 253.049,286.553 253.109 C 286.613 253.169,286.507 253.469,286.318 253.776 C 286.128 254.082,286.018 254.333,286.074 254.333 C 286.129 254.333,286.065 254.502,285.931 254.708 C 285.797 254.915,285.563 255.458,285.411 255.917 C 285.258 256.375,285.037 256.975,284.920 257.250 C 284.802 257.525,284.614 258.012,284.503 258.333 C 284.391 258.654,284.232 259.067,284.150 259.250 C 283.712 260.220,282.330 265.186,282.444 265.375 C 282.486 265.444,282.453 265.500,282.371 265.500 C 282.289 265.500,282.218 265.594,282.214 265.708 C 282.209 265.823,282.163 266.104,282.111 266.333 C 282.059 266.563,281.980 266.919,281.935 267.126 C 281.889 267.332,281.818 267.557,281.776 267.626 C 281.734 267.694,281.656 268.012,281.603 268.333 C 281.550 268.654,281.459 269.104,281.401 269.333 C 281.343 269.563,281.273 269.938,281.245 270.167 C 281.217 270.396,281.178 270.583,281.159 270.583 C 281.113 270.583,281.018 271.088,280.907 271.917 C 280.858 272.283,280.703 273.333,280.562 274.250 C 280.230 276.416,280.207 276.582,280.091 277.667 C 280.037 278.171,279.958 278.883,279.915 279.250 C 279.872 279.617,279.797 281.267,279.748 282.917 C 279.699 284.567,279.625 286.296,279.582 286.760 C 279.507 287.572,279.759 294.717,279.910 296.083 C 279.950 296.450,280.034 297.200,280.096 297.750 C 280.157 298.300,280.227 298.938,280.251 299.167 C 280.388 300.478,280.523 301.635,280.583 302.000 C 280.621 302.229,280.690 302.642,280.735 302.917 C 280.781 303.192,280.862 303.829,280.916 304.333 C 281.045 305.565,281.362 307.382,281.497 307.667 C 281.532 307.741,281.817 309.070,282.087 310.417 C 282.428 312.120,282.907 314.255,283.189 315.333 C 283.369 316.021,283.545 316.710,283.580 316.865 C 283.897 318.272,284.855 321.244,285.056 321.445 C 285.117 321.506,285.167 321.721,285.167 321.923 C 285.167 322.125,285.322 322.641,285.511 323.069 C 285.700 323.497,285.882 323.985,285.914 324.153 C 285.946 324.321,286.120 324.787,286.300 325.188 C 286.480 325.589,286.681 326.104,286.747 326.333 C 286.814 326.563,287.002 327.050,287.166 327.417 C 287.330 327.783,287.603 328.419,287.773 328.829 C 287.944 329.240,288.351 329.990,288.678 330.496 C 289.005 331.002,289.278 331.454,289.286 331.500 C 289.327 331.760,289.914 332.833,290.014 332.833 C 290.080 332.833,290.284 333.089,290.469 333.401 C 291.111 334.490,293.540 335.376,294.614 334.914 C 294.780 334.842,295.060 334.756,295.236 334.722 C 295.961 334.582,298.205 333.223,298.870 332.521 C 299.262 332.107,299.471 331.830,299.333 331.906 C 299.196 331.982,299.327 331.813,299.625 331.531 C 299.923 331.249,300.167 330.921,300.168 330.801 C 300.168 330.681,300.268 330.393,300.390 330.160 C 301.462 328.106,301.756 321.906,301.075 315.750 C 301.034 315.383,300.964 314.521,300.918 313.833 C 300.836 312.595,300.741 311.715,300.586 310.750 C 300.542 310.475,300.473 309.912,300.433 309.500 C 300.344 308.576,300.201 307.439,300.076 306.667 C 299.956 305.918,299.873 305.182,299.756 303.833 C 299.704 303.237,299.616 302.525,299.561 302.250 C 299.423 301.569,299.434 298.424,299.577 297.500 C 299.750 296.381,300.455 294.825,301.352 293.583 C 302.080 292.576,303.590 291.000,303.828 291.000 C 303.923 291.000,304.000 290.933,304.000 290.851 C 304.000 290.770,304.188 290.656,304.417 290.598 C 304.646 290.541,304.833 290.423,304.833 290.337 C 304.833 290.189,307.121 289.387,308.000 289.228 C 309.853 288.892,313.064 289.360,314.771 290.213 C 315.218 290.436,315.777 290.666,316.014 290.722 C 316.610 290.865,318.000 291.660,318.000 291.857 C 318.000 291.947,318.066 291.979,318.146 291.930 C 318.226 291.880,318.484 292.018,318.719 292.236 C 318.954 292.453,319.182 292.596,319.226 292.552 C 319.270 292.508,319.390 292.628,319.492 292.819 C 319.595 293.010,319.770 293.167,319.882 293.167 C 319.995 293.167,320.180 293.317,320.295 293.500 C 320.409 293.683,320.574 293.833,320.661 293.833 C 320.747 293.833,320.996 294.002,321.213 294.208 C 321.805 294.770,322.403 295.244,322.524 295.247 C 322.583 295.249,323.183 295.841,323.857 296.563 C 324.532 297.285,325.590 298.390,326.208 299.020 C 326.827 299.649,327.333 300.236,327.333 300.323 C 327.333 300.410,327.502 300.599,327.708 300.744 C 327.915 300.888,328.070 301.061,328.053 301.128 C 328.036 301.195,328.369 301.625,328.793 302.083 C 329.218 302.542,329.551 302.969,329.535 303.032 C 329.519 303.096,329.731 303.308,330.005 303.504 C 330.279 303.699,330.465 303.922,330.417 304.000 C 330.369 304.078,330.555 304.302,330.831 304.499 C 331.107 304.695,331.334 304.945,331.334 305.053 C 331.335 305.236,332.032 306.115,332.826 306.934 C 333.014 307.127,333.167 307.334,333.167 307.394 C 333.167 307.492,333.757 308.210,334.292 308.761 C 334.406 308.879,334.502 309.038,334.505 309.113 C 334.507 309.188,334.732 309.469,335.005 309.736 C 335.277 310.003,335.500 310.287,335.500 310.367 C 335.500 310.446,335.708 310.715,335.963 310.964 C 336.218 311.213,336.435 311.479,336.446 311.556 C 336.470 311.730,337.403 312.859,338.125 313.587 C 338.423 313.887,338.667 314.198,338.667 314.278 C 338.667 314.357,339.004 314.775,339.417 315.205 C 339.829 315.636,340.167 316.047,340.167 316.120 C 340.167 316.193,340.605 316.720,341.142 317.293 C 341.678 317.865,342.074 318.333,342.022 318.333 C 341.970 318.333,342.319 318.707,342.797 319.163 C 343.275 319.619,343.667 320.059,343.667 320.141 C 343.667 320.375,352.967 329.667,353.200 329.667 C 353.255 329.667,353.554 329.910,353.865 330.208 C 354.912 331.212,356.232 332.333,356.366 332.333 C 356.440 332.333,356.644 332.465,356.820 332.625 C 357.428 333.179,358.485 334.021,359.074 334.421 C 359.991 335.043,360.742 335.575,360.833 335.667 C 360.879 335.713,361.123 335.857,361.375 335.987 C 361.627 336.117,361.833 336.285,361.833 336.361 C 361.833 336.438,361.946 336.500,362.083 336.500 C 362.221 336.500,362.333 336.557,362.333 336.626 C 362.333 336.695,362.544 336.845,362.802 336.959 C 363.060 337.074,363.430 337.315,363.625 337.497 C 364.067 337.908,366.487 339.349,366.858 339.421 C 367.009 339.450,367.293 339.611,367.489 339.779 C 367.684 339.946,367.890 340.058,367.945 340.027 C 368.001 339.997,368.092 340.034,368.148 340.111 C 368.261 340.265,369.441 340.836,369.607 340.817 C 369.665 340.810,369.760 340.881,369.817 340.973 C 370.085 341.407,375.199 343.418,376.418 343.569 C 376.720 343.607,377.125 343.722,377.317 343.825 C 377.509 343.928,377.667 343.979,377.667 343.940 C 377.667 343.901,377.948 343.938,378.292 344.023 C 379.257 344.263,380.034 344.398,381.750 344.625 C 383.223 344.820,389.443 344.755,389.700 344.542 C 389.827 344.436,390.079 344.355,390.258 344.363 C 390.437 344.371,390.790 344.329,391.042 344.272 C 391.294 344.214,391.704 344.125,391.953 344.073 C 392.202 344.022,392.491 343.910,392.593 343.825 C 392.696 343.739,392.830 343.719,392.890 343.779 C 392.951 343.840,393.000 343.797,393.000 343.685 C 393.000 343.572,393.075 343.527,393.167 343.583 C 393.258 343.640,393.333 343.594,393.333 343.482 C 393.333 343.370,393.381 343.325,393.439 343.383 C 393.717 343.661,395.379 342.311,395.777 341.485 C 396.076 340.863,396.223 340.430,396.187 340.274 C 396.170 340.196,396.222 340.046,396.303 339.941 C 396.385 339.836,396.422 339.412,396.386 339.000 C 396.350 338.587,396.317 338.137,396.312 338.000 C 396.299 337.637,396.010 336.668,395.722 336.030 C 395.321 335.138,393.365 333.020,392.250 332.272 C 391.883 332.025,391.330 331.640,391.021 331.415 C 390.712 331.190,390.393 331.047,390.312 331.097 C 390.231 331.147,390.119 331.071,390.064 330.927 C 390.009 330.784,389.860 330.667,389.732 330.667 C 389.604 330.667,389.500 330.593,389.500 330.503 C 389.500 330.413,389.313 330.293,389.083 330.235 C 388.854 330.178,388.667 330.059,388.667 329.972 C 388.667 329.885,388.592 329.860,388.500 329.917 C 388.408 329.973,388.333 329.936,388.333 329.833 C 388.333 329.731,388.258 329.693,388.167 329.750 C 388.075 329.807,388.000 329.783,388.000 329.697 C 388.000 329.611,387.475 329.265,386.833 328.928 C 386.192 328.591,385.667 328.368,385.667 328.433 C 385.667 328.498,385.535 328.438,385.375 328.298 C 385.215 328.159,384.356 327.689,383.467 327.255 C 382.578 326.821,381.607 326.285,381.310 326.066 C 381.012 325.846,380.629 325.667,380.458 325.667 C 380.287 325.667,380.187 325.602,380.235 325.524 C 380.306 325.409,378.814 324.454,378.500 324.413 C 378.454 324.407,377.989 324.124,377.466 323.785 C 376.944 323.445,376.463 323.167,376.399 323.167 C 376.334 323.167,376.031 322.975,375.724 322.742 C 375.417 322.508,375.167 322.369,375.167 322.434 C 375.167 322.498,375.017 322.378,374.833 322.167 C 374.650 321.955,374.500 321.834,374.500 321.898 C 374.500 321.961,374.406 321.934,374.292 321.837 C 373.440 321.115,373.067 320.834,372.960 320.834 C 372.893 320.833,372.705 320.720,372.544 320.582 C 372.382 320.444,372.175 320.317,372.083 320.301 C 371.992 320.285,371.780 320.099,371.613 319.886 C 371.446 319.674,371.208 319.500,371.085 319.500 C 370.962 319.500,370.836 319.444,370.806 319.375 C 370.775 319.306,370.553 319.137,370.313 319.000 C 369.754 318.681,368.982 318.083,368.107 317.294 C 367.727 316.951,367.329 316.670,367.222 316.669 C 367.115 316.668,367.003 316.610,366.972 316.542 C 366.883 316.341,365.333 315.132,365.333 315.263 C 365.333 315.329,365.165 315.201,364.958 314.979 C 364.752 314.758,363.571 313.770,362.333 312.785 C 361.096 311.799,360.008 310.918,359.917 310.826 C 359.825 310.735,359.253 310.253,358.645 309.756 C 358.037 309.258,357.287 308.618,356.978 308.333 C 356.669 308.047,356.201 307.650,355.937 307.449 C 355.673 307.248,355.092 306.719,354.645 306.275 C 354.199 305.830,353.833 305.506,353.833 305.554 C 353.833 305.637,351.347 303.326,350.279 302.250 C 350.006 301.975,349.719 301.769,349.641 301.792 C 349.564 301.815,349.517 301.777,349.539 301.708 C 349.560 301.640,348.941 300.991,348.164 300.267 C 346.442 298.664,342.679 294.798,342.672 294.625 C 342.669 294.556,342.559 294.500,342.428 294.500 C 342.297 294.500,342.146 294.364,342.093 294.197 C 342.040 294.031,341.650 293.525,341.226 293.072 C 340.802 292.620,340.045 291.744,339.542 291.125 C 339.040 290.506,338.563 290.000,338.481 290.000 C 338.400 290.000,338.333 289.922,338.333 289.826 C 338.333 289.731,338.257 289.562,338.165 289.451 C 338.072 289.341,337.616 288.725,337.151 288.083 C 336.687 287.442,336.199 286.856,336.066 286.781 C 335.934 286.707,335.861 286.590,335.903 286.521 C 335.946 286.453,335.760 286.139,335.491 285.823 C 335.221 285.508,335.001 285.186,335.000 285.108 C 335.000 285.029,334.775 284.632,334.500 284.224 C 334.225 283.817,334.000 283.417,334.000 283.337 C 334.000 283.256,333.895 283.085,333.767 282.957 C 333.402 282.593,332.467 280.489,332.379 279.837 C 332.289 279.160,332.668 278.679,334.225 277.504 C 334.730 277.123,335.264 276.626,335.412 276.400 C 335.560 276.174,335.753 276.034,335.841 276.088 C 335.928 276.142,336.000 276.105,336.000 276.005 C 336.000 275.905,336.131 275.775,336.292 275.717 C 336.452 275.658,336.837 275.379,337.147 275.097 C 338.012 274.308,340.667 271.662,340.667 271.587 C 340.667 271.551,340.985 271.171,341.375 270.743 C 341.765 270.315,342.083 269.915,342.083 269.853 C 342.083 269.792,342.290 269.520,342.542 269.248 C 342.794 268.976,343.000 268.659,343.000 268.543 C 343.000 268.428,343.066 268.333,343.146 268.333 C 343.306 268.333,343.771 267.329,343.706 267.125 C 343.684 267.056,343.742 267.000,343.833 267.000 C 343.925 267.000,344.000 266.887,344.000 266.750 C 344.000 266.612,344.075 266.500,344.167 266.500 C 344.258 266.500,344.333 266.419,344.333 266.320 C 344.333 266.221,344.596 265.595,344.917 264.928 C 345.238 264.261,345.500 263.604,345.500 263.469 C 345.500 263.333,345.556 263.166,345.625 263.097 C 345.694 263.028,345.756 262.922,345.764 262.861 C 345.772 262.800,345.826 262.637,345.883 262.500 C 348.051 257.295,348.101 244.263,345.968 240.109 C 345.881 239.939,345.849 239.762,345.896 239.715 C 346.129 239.482,343.452 233.483,342.417 231.921 C 342.234 231.644,341.974 231.205,341.840 230.945 C 341.706 230.686,341.462 230.402,341.298 230.315 C 341.134 230.227,341.000 230.047,341.000 229.915 C 341.000 229.782,340.813 229.551,340.583 229.401 C 340.354 229.251,340.167 229.049,340.167 228.952 C 340.167 228.746,337.590 226.167,337.384 226.167 C 337.309 226.167,337.064 225.946,336.841 225.676 C 336.619 225.407,336.376 225.224,336.302 225.270 C 336.227 225.315,336.167 225.269,336.167 225.167 C 336.167 225.064,336.092 225.027,336.000 225.083 C 335.908 225.140,335.833 225.065,335.833 224.917 C 335.833 224.768,335.758 224.694,335.665 224.751 C 335.573 224.808,335.453 224.738,335.398 224.595 C 335.343 224.452,335.231 224.377,335.149 224.427 C 335.067 224.478,335.000 224.440,335.000 224.343 C 335.000 224.142,331.026 222.167,330.621 222.167 C 330.475 222.167,330.144 222.080,329.886 221.974 C 329.412 221.780,329.238 221.724,328.708 221.596 C 328.548 221.557,328.417 221.514,328.417 221.500 C 328.417 221.438,327.263 221.233,326.000 221.071 C 325.210 220.969,321.714 220.846,321.632 220.917 M317.402 244.376 C 317.456 244.322,317.500 244.360,317.500 244.461 C 317.500 244.616,317.864 244.811,318.375 244.929 C 318.444 244.945,318.537 244.968,318.583 244.979 C 318.629 244.991,318.715 244.994,318.773 244.986 C 318.832 244.978,318.925 245.039,318.981 245.122 C 319.115 245.320,321.713 246.594,321.875 246.541 C 321.944 246.518,322.000 246.579,322.000 246.677 C 322.000 246.774,322.075 246.807,322.167 246.750 C 322.258 246.693,322.333 246.739,322.333 246.851 C 322.333 246.964,322.375 247.013,322.427 246.962 C 322.478 246.910,322.714 247.048,322.951 247.267 C 323.188 247.487,323.443 247.667,323.517 247.667 C 323.591 247.667,323.831 247.835,324.050 248.042 C 324.269 248.248,324.873 248.809,325.391 249.288 C 325.909 249.768,326.333 250.223,326.333 250.300 C 326.333 250.377,326.558 250.692,326.833 251.000 C 327.108 251.308,327.333 251.635,327.333 251.727 C 327.333 251.819,327.473 252.200,327.644 252.572 C 329.264 256.105,329.113 261.134,327.343 262.583 C 326.839 262.996,326.000 263.520,326.000 263.423 C 326.000 263.383,325.723 263.466,325.384 263.608 C 325.045 263.749,324.651 263.888,324.508 263.915 C 324.366 263.943,323.926 264.052,323.532 264.158 C 322.753 264.368,321.967 264.490,319.833 264.732 C 319.604 264.758,319.304 264.822,319.167 264.875 C 319.029 264.929,318.804 264.972,318.667 264.972 C 318.529 264.971,317.967 265.022,317.417 265.084 C 316.867 265.146,316.192 265.218,315.917 265.245 C 315.642 265.271,315.004 265.344,314.500 265.406 C 313.618 265.514,311.246 265.658,309.333 265.718 C 303.820 265.892,301.547 264.503,302.159 261.333 C 302.239 260.921,302.274 260.553,302.237 260.515 C 302.200 260.478,302.234 260.365,302.313 260.265 C 302.391 260.165,302.662 259.446,302.915 258.667 C 303.405 257.152,304.068 255.816,305.518 253.417 C 306.017 252.592,306.515 251.710,306.625 251.458 C 306.736 251.206,306.903 251.000,306.996 251.000 C 307.090 251.000,307.167 250.887,307.167 250.750 C 307.167 250.612,307.232 250.500,307.311 250.500 C 307.391 250.500,307.666 250.181,307.923 249.792 C 309.734 247.045,312.247 244.731,314.135 244.071 L 315.223 243.691 316.264 244.082 C 316.836 244.298,317.348 244.430,317.402 244.376 M263.583 252.948 C 263.400 252.987,263.137 253.065,263.000 253.122 C 262.862 253.178,262.600 253.238,262.417 253.256 C 261.905 253.305,261.297 253.451,260.794 253.646 C 260.543 253.744,259.981 253.871,259.544 253.930 C 259.107 253.988,258.619 254.106,258.458 254.191 C 258.298 254.276,258.167 254.310,258.167 254.268 C 258.167 254.168,255.644 254.844,253.183 255.604 C 250.828 256.331,250.303 256.460,249.243 256.577 C 248.788 256.627,248.154 256.710,247.833 256.761 C 247.512 256.813,247.063 256.881,246.833 256.914 C 246.093 257.020,245.264 257.151,244.667 257.256 C 244.346 257.312,243.896 257.391,243.667 257.432 C 243.438 257.472,242.950 257.546,242.583 257.597 C 242.217 257.647,241.729 257.721,241.500 257.761 C 241.271 257.801,240.858 257.865,240.583 257.905 C 240.308 257.944,239.783 258.025,239.417 258.085 C 239.050 258.145,238.563 258.213,238.333 258.236 C 237.064 258.363,231.978 259.204,231.000 259.448 C 230.771 259.505,230.475 259.573,230.343 259.599 C 229.330 259.798,226.462 260.672,226.333 260.821 C 226.287 260.873,226.069 260.937,225.847 260.961 C 225.625 260.986,225.334 261.098,225.199 261.211 C 225.065 261.324,224.684 261.529,224.352 261.667 C 223.396 262.064,221.729 263.000,221.349 263.355 C 221.157 263.534,221.000 263.640,221.000 263.591 C 221.000 263.424,220.245 264.088,218.957 265.389 C 218.246 266.108,217.702 266.756,217.748 266.830 C 217.794 266.904,217.716 267.009,217.575 267.064 C 217.434 267.118,217.208 267.426,217.074 267.748 C 216.939 268.070,216.755 268.333,216.664 268.333 C 216.574 268.333,216.500 268.477,216.500 268.653 C 216.500 268.828,216.444 268.997,216.375 269.028 C 216.306 269.058,216.050 269.496,215.805 270.000 C 214.600 272.483,214.388 273.272,213.885 277.167 C 213.754 278.176,213.753 283.667,213.883 284.917 C 213.940 285.467,214.031 286.404,214.086 287.000 C 214.248 288.775,214.644 290.879,215.255 293.216 C 215.904 295.698,215.964 295.917,216.000 295.917 C 216.036 295.917,216.183 296.544,216.204 296.792 C 216.214 296.906,216.266 297.000,216.319 297.000 C 216.373 297.000,216.427 297.173,216.439 297.385 C 216.451 297.596,216.663 298.252,216.909 298.843 C 217.156 299.433,217.371 300.029,217.387 300.167 C 217.403 300.304,217.462 300.454,217.517 300.500 C 217.572 300.546,217.753 300.994,217.918 301.497 C 218.084 301.999,218.408 302.824,218.640 303.330 C 218.871 303.836,219.065 304.289,219.072 304.336 C 219.110 304.620,219.936 306.167,220.049 306.167 C 220.125 306.167,220.144 306.236,220.092 306.320 C 220.040 306.404,220.091 306.575,220.207 306.699 C 220.322 306.823,220.441 307.035,220.472 307.169 C 220.502 307.304,220.614 307.469,220.722 307.538 C 220.829 307.606,220.842 307.664,220.750 307.667 C 220.650 307.670,220.655 307.721,220.763 307.794 C 220.862 307.862,221.305 308.592,221.746 309.417 C 222.188 310.242,222.614 310.942,222.692 310.972 C 222.770 311.003,222.833 311.106,222.833 311.202 C 222.833 311.416,224.164 313.395,224.359 313.472 C 224.437 313.503,224.501 313.615,224.502 313.722 C 224.503 313.829,224.800 314.235,225.162 314.625 C 225.524 315.015,225.768 315.333,225.705 315.333 C 225.642 315.333,225.753 315.502,225.952 315.708 C 226.152 315.915,226.638 316.455,227.032 316.909 C 227.427 317.363,228.044 318.000,228.404 318.325 C 228.763 318.651,229.239 319.104,229.461 319.333 C 229.684 319.563,229.914 319.753,229.974 319.757 C 230.034 319.760,230.340 320.009,230.654 320.309 C 231.510 321.127,234.747 323.165,235.196 323.168 C 235.318 323.169,235.790 323.350,236.246 323.571 C 236.702 323.792,237.137 323.935,237.212 323.889 C 237.287 323.843,237.457 323.895,237.591 324.006 C 237.724 324.117,237.833 324.152,237.833 324.083 C 237.833 324.015,237.957 324.062,238.109 324.188 C 238.261 324.314,238.411 324.398,238.442 324.375 C 238.474 324.352,238.519 324.339,238.542 324.346 C 238.594 324.362,238.958 324.451,239.500 324.579 C 241.229 324.990,244.881 325.153,247.083 324.917 C 250.180 324.586,250.992 324.471,251.500 324.291 C 251.735 324.208,253.093 323.915,254.057 323.740 C 254.296 323.697,254.681 323.590,254.912 323.502 C 255.144 323.414,255.333 323.386,255.333 323.441 C 255.333 323.496,255.448 323.446,255.587 323.330 C 255.727 323.214,255.885 323.163,255.938 323.216 C 255.991 323.269,256.233 323.235,256.475 323.141 C 256.718 323.046,257.096 322.935,257.314 322.894 C 257.533 322.853,257.926 322.708,258.189 322.572 C 258.452 322.436,258.667 322.373,258.667 322.433 C 258.667 322.492,258.791 322.438,258.942 322.312 C 259.094 322.186,259.245 322.106,259.278 322.133 C 259.399 322.232,261.167 321.602,261.167 321.460 C 261.167 321.379,261.236 321.357,261.322 321.410 C 261.407 321.462,261.524 321.429,261.582 321.336 C 261.639 321.243,261.827 321.167,261.998 321.167 C 262.169 321.167,262.422 321.054,262.560 320.917 C 262.697 320.779,262.927 320.667,263.071 320.667 C 263.215 320.667,263.333 320.601,263.333 320.520 C 263.333 320.440,263.560 320.280,263.837 320.165 C 264.114 320.050,264.396 319.872,264.462 319.770 C 264.598 319.560,265.078 319.241,265.598 319.014 C 266.589 318.581,267.740 316.478,267.603 315.351 C 267.462 314.193,267.455 314.167,267.306 314.167 C 267.229 314.167,267.185 314.095,267.208 314.007 C 267.266 313.783,265.829 312.483,265.648 312.595 C 265.566 312.645,265.500 312.624,265.500 312.548 C 265.500 312.175,261.547 311.278,259.047 311.083 C 257.636 310.974,256.739 310.881,255.833 310.751 C 254.663 310.582,254.231 310.529,253.286 310.435 C 252.756 310.382,252.193 310.273,252.036 310.192 C 251.879 310.111,251.654 310.079,251.536 310.122 C 251.418 310.164,251.226 310.118,251.108 310.021 C 250.991 309.923,250.637 309.828,250.322 309.809 C 250.008 309.790,249.675 309.723,249.583 309.660 C 249.492 309.597,249.117 309.498,248.750 309.440 C 247.496 309.242,247.083 309.148,246.333 308.892 C 245.921 308.752,245.471 308.613,245.333 308.583 C 245.098 308.532,242.743 307.697,240.345 306.812 C 237.950 305.929,236.749 304.122,237.684 302.809 C 237.858 302.565,238.000 302.283,238.000 302.183 C 238.000 302.082,238.075 302.000,238.167 302.000 C 238.258 302.000,238.333 301.904,238.333 301.787 C 238.333 301.670,238.465 301.458,238.625 301.315 C 238.785 301.173,239.118 300.837,239.365 300.570 C 239.900 299.988,240.014 299.894,241.179 299.065 C 241.676 298.711,242.271 298.251,242.500 298.042 C 242.729 297.834,243.048 297.621,243.208 297.570 C 243.369 297.519,243.500 297.408,243.500 297.322 C 243.500 297.237,243.612 297.167,243.750 297.167 C 243.887 297.167,244.000 297.092,244.000 297.000 C 244.000 296.908,244.108 296.833,244.241 296.833 C 244.373 296.833,244.579 296.695,244.699 296.525 C 244.819 296.355,245.142 296.099,245.417 295.956 C 245.692 295.812,246.082 295.539,246.285 295.347 C 246.487 295.156,246.720 295.000,246.802 295.000 C 247.020 295.000,250.500 291.652,250.500 291.443 C 250.500 291.345,250.717 291.037,250.983 290.758 C 252.636 289.019,253.263 285.612,252.278 283.725 C 251.916 283.032,250.000 281.508,250.000 281.913 C 250.000 281.967,249.845 281.929,249.655 281.827 C 249.012 281.483,245.515 281.764,245.364 282.172 C 245.335 282.251,245.204 282.273,245.073 282.223 C 244.941 282.172,244.833 282.205,244.833 282.296 C 244.833 282.386,244.477 282.549,244.042 282.658 C 243.606 282.767,242.672 283.188,241.966 283.595 C 241.260 284.001,240.604 284.333,240.508 284.333 C 240.412 284.333,240.333 284.413,240.333 284.510 C 240.333 284.607,240.269 284.647,240.191 284.598 C 240.113 284.550,239.711 284.725,239.298 284.986 C 238.885 285.248,238.387 285.513,238.191 285.576 C 237.994 285.638,237.833 285.764,237.833 285.854 C 237.833 285.945,237.764 285.977,237.680 285.925 C 237.596 285.873,237.425 285.925,237.301 286.040 C 237.177 286.156,236.965 286.275,236.831 286.305 C 236.696 286.335,236.548 286.418,236.502 286.488 C 236.455 286.559,235.766 286.818,234.970 287.065 C 231.101 288.263,230.405 287.721,230.276 283.414 C 230.227 281.776,230.472 278.523,230.671 278.167 C 230.696 278.121,230.732 278.008,230.750 277.917 C 230.768 277.825,230.825 277.637,230.876 277.500 C 230.928 277.362,231.068 276.894,231.188 276.458 C 231.308 276.023,231.460 275.667,231.525 275.667 C 231.591 275.667,231.692 275.516,231.750 275.332 C 231.809 275.149,232.045 274.774,232.276 274.499 C 232.507 274.225,232.635 274.000,232.559 274.000 C 232.484 274.000,232.721 273.799,233.086 273.554 C 233.451 273.309,233.787 273.065,233.833 273.013 C 234.178 272.616,237.080 271.631,238.500 271.429 C 238.637 271.409,238.884 271.333,239.049 271.259 C 239.213 271.186,239.390 271.167,239.441 271.219 C 239.492 271.270,239.726 271.239,239.961 271.150 C 240.196 271.061,240.769 270.956,241.236 270.917 C 241.702 270.878,242.496 270.809,243.000 270.763 C 243.504 270.717,244.592 270.638,245.417 270.588 C 246.242 270.538,247.217 270.466,247.583 270.427 C 247.950 270.388,248.737 270.313,249.333 270.259 C 251.072 270.104,253.148 269.835,254.583 269.580 C 255.951 269.337,256.043 269.318,257.344 269.020 C 258.513 268.752,261.471 267.731,261.751 267.499 C 261.888 267.386,262.000 267.341,262.000 267.400 C 262.000 267.459,262.175 267.393,262.388 267.253 C 262.602 267.113,262.827 267.049,262.888 267.111 C 262.950 267.172,263.000 267.130,263.000 267.018 C 263.000 266.906,263.070 266.857,263.155 266.910 C 263.240 266.962,263.353 266.936,263.406 266.850 C 263.459 266.765,263.839 266.532,264.252 266.332 C 264.664 266.133,265.239 265.717,265.530 265.409 C 265.820 265.102,266.108 264.881,266.169 264.918 C 266.314 265.008,267.833 263.424,267.833 263.184 C 267.833 263.083,267.891 263.000,267.961 263.000 C 268.131 263.000,268.928 261.680,268.875 261.486 C 268.852 261.402,268.913 261.333,269.010 261.333 C 269.107 261.333,269.144 261.265,269.092 261.181 C 269.040 261.097,269.069 261.003,269.156 260.973 C 269.243 260.942,269.351 260.729,269.397 260.500 C 269.443 260.271,269.552 259.851,269.638 259.566 C 269.817 258.979,269.716 256.755,269.500 256.542 C 269.453 256.495,269.386 256.247,269.354 256.006 C 269.343 255.918,269.169 255.693,268.969 255.506 C 268.768 255.320,268.670 255.167,268.751 255.167 C 268.832 255.167,268.644 254.904,268.333 254.583 C 268.022 254.262,267.674 254.000,267.560 254.000 C 267.446 254.000,267.235 253.833,267.093 253.630 C 266.950 253.426,266.833 253.328,266.833 253.411 C 266.833 253.495,266.727 253.418,266.597 253.240 C 266.363 252.921,264.537 252.744,263.583 252.948 M112.596 256.460 C 112.560 256.496,112.430 256.546,112.307 256.571 C 112.184 256.597,111.563 256.861,110.928 257.158 C 110.293 257.455,109.655 257.725,109.511 257.759 C 109.151 257.843,108.119 258.230,107.917 258.357 C 107.825 258.414,107.511 258.512,107.220 258.574 C 106.928 258.637,106.610 258.784,106.512 258.902 C 106.415 259.019,106.035 259.251,105.668 259.416 C 105.300 259.582,105.000 259.781,105.000 259.859 C 105.000 259.936,104.924 260.000,104.832 260.000 C 104.739 260.000,104.373 260.206,104.018 260.458 C 103.663 260.710,103.203 261.029,102.997 261.167 C 101.764 261.986,97.584 265.833,97.926 265.833 C 97.991 265.833,97.734 266.105,97.355 266.437 C 96.976 266.769,96.667 267.105,96.667 267.185 C 96.667 267.265,96.431 267.556,96.142 267.832 C 95.853 268.108,95.669 268.333,95.731 268.333 C 95.794 268.333,95.543 268.648,95.173 269.034 C 94.803 269.419,94.500 269.797,94.500 269.874 C 94.500 269.951,94.424 270.105,94.332 270.215 C 94.239 270.326,93.942 270.679,93.672 271.000 C 93.401 271.321,93.053 271.865,92.898 272.208 C 92.743 272.552,92.548 272.833,92.465 272.833 C 92.382 272.833,92.360 272.909,92.417 273.001 C 92.474 273.093,92.404 273.214,92.262 273.269 C 92.119 273.323,92.036 273.424,92.079 273.492 C 92.121 273.560,92.014 273.768,91.842 273.953 C 91.201 274.640,88.780 279.254,88.779 279.792 C 88.778 279.906,88.723 280.000,88.657 280.000 C 88.551 280.000,88.409 280.389,88.320 280.917 C 88.305 281.008,88.151 281.262,87.979 281.481 C 87.807 281.699,87.667 281.982,87.667 282.108 C 87.667 282.234,87.594 282.468,87.506 282.627 C 87.208 283.164,86.668 284.477,86.621 284.781 C 86.595 284.947,86.530 285.158,86.477 285.250 C 86.256 285.630,85.609 287.984,85.264 289.667 C 85.236 289.804,85.171 290.029,85.120 290.167 C 85.069 290.304,84.984 290.717,84.930 291.083 C 84.876 291.450,84.752 292.200,84.653 292.750 C 84.554 293.300,84.446 293.938,84.412 294.167 C 84.378 294.396,84.306 294.794,84.253 295.052 C 84.070 295.942,83.856 298.716,83.796 301.000 C 83.750 302.747,83.987 306.046,84.257 307.417 C 84.311 307.692,84.354 308.063,84.352 308.242 C 84.350 308.421,84.423 308.657,84.514 308.766 C 84.604 308.876,84.663 309.029,84.645 309.107 C 84.627 309.186,84.660 309.438,84.718 309.667 C 84.776 309.896,84.865 310.383,84.915 310.750 C 85.009 311.439,85.355 312.649,85.747 313.667 C 85.989 314.294,86.204 314.866,86.249 315.000 C 86.357 315.321,87.042 316.840,87.263 317.250 C 87.412 317.525,87.765 318.181,88.049 318.708 C 88.332 319.235,88.624 319.667,88.699 319.667 C 88.773 319.667,88.833 319.750,88.833 319.853 C 88.833 320.248,90.199 321.992,91.458 323.206 C 91.940 323.670,92.333 324.151,92.333 324.275 C 92.333 324.399,92.405 324.500,92.492 324.500 C 92.580 324.500,92.979 324.819,93.379 325.208 C 94.233 326.039,94.774 326.464,95.292 326.709 C 95.498 326.807,95.667 326.950,95.667 327.027 C 95.667 327.104,95.779 327.167,95.917 327.167 C 96.054 327.167,96.167 327.224,96.167 327.294 C 96.167 327.364,96.312 327.495,96.490 327.585 C 96.669 327.676,97.287 327.991,97.865 328.285 C 98.444 328.580,98.983 328.817,99.065 328.813 C 99.146 328.808,99.262 328.885,99.323 328.983 C 99.454 329.195,102.184 330.205,102.304 330.085 C 102.349 330.040,102.470 330.072,102.572 330.157 C 103.430 330.870,110.108 331.347,113.618 330.946 C 115.121 330.775,120.021 329.660,120.631 329.351 C 120.788 329.271,121.123 329.122,121.375 329.019 C 121.627 328.917,122.040 328.750,122.292 328.648 C 122.544 328.546,123.237 328.216,123.833 327.916 C 124.429 327.615,125.104 327.313,125.333 327.245 C 125.831 327.096,128.393 325.638,128.472 325.459 C 128.503 325.390,128.634 325.333,128.764 325.333 C 128.894 325.333,129.000 325.258,129.000 325.167 C 129.000 325.075,129.094 325.000,129.210 325.000 C 129.325 325.000,129.515 324.847,129.632 324.660 C 129.749 324.473,129.917 324.365,130.005 324.420 C 130.094 324.475,130.167 324.440,130.167 324.343 C 130.167 324.246,130.263 324.167,130.380 324.167 C 130.497 324.167,130.703 324.010,130.838 323.819 C 130.973 323.628,131.308 323.356,131.583 323.215 C 132.196 322.900,132.524 322.602,134.997 320.116 C 136.073 319.033,137.058 317.946,137.185 317.700 C 137.313 317.454,137.596 317.083,137.816 316.876 C 138.036 316.669,138.153 316.500,138.076 316.500 C 137.999 316.500,138.175 316.267,138.467 315.982 C 138.758 315.697,138.956 315.397,138.905 315.315 C 138.855 315.233,138.886 315.167,138.974 315.167 C 139.121 315.167,139.901 313.977,140.012 313.583 C 140.038 313.492,140.159 313.318,140.280 313.196 C 140.401 313.075,140.500 312.869,140.500 312.738 C 140.500 312.607,140.566 312.500,140.646 312.500 C 140.801 312.500,141.587 310.837,141.532 310.625 C 141.515 310.556,141.588 310.500,141.694 310.500 C 141.801 310.500,141.842 310.454,141.786 310.397 C 141.729 310.340,141.791 310.185,141.925 310.052 C 142.058 309.918,142.167 309.633,142.167 309.417 C 142.167 309.201,142.279 308.911,142.417 308.774 C 142.554 308.636,142.667 308.378,142.667 308.199 C 142.667 308.020,142.769 307.789,142.895 307.685 C 143.130 307.489,143.418 306.757,143.884 305.167 C 144.031 304.662,144.263 303.875,144.398 303.417 C 144.783 302.108,145.128 300.355,145.250 299.086 C 145.312 298.445,145.395 297.868,145.436 297.803 C 145.617 297.509,145.467 291.143,145.248 289.833 C 145.117 289.054,144.972 288.192,144.925 287.917 C 144.586 285.922,143.717 283.052,142.908 281.250 C 142.702 280.792,142.410 280.117,142.258 279.750 C 142.107 279.383,141.858 278.896,141.706 278.667 C 141.554 278.438,141.414 278.152,141.395 278.033 C 141.376 277.914,141.225 277.614,141.060 277.366 C 140.894 277.119,140.592 276.560,140.387 276.125 C 140.183 275.690,139.937 275.333,139.841 275.333 C 139.745 275.333,139.684 275.277,139.706 275.208 C 139.769 275.011,138.477 273.202,137.696 272.394 C 137.575 272.269,137.528 272.167,137.591 272.167 C 137.654 272.167,137.494 271.888,137.234 271.548 C 136.538 270.635,136.334 270.399,135.417 269.444 C 134.958 268.966,134.167 268.128,133.658 267.580 C 132.776 266.630,132.273 266.170,131.926 265.996 C 131.839 265.952,131.457 265.617,131.076 265.250 C 129.644 263.872,128.062 262.654,127.201 262.266 C 126.821 262.094,126.549 261.889,126.598 261.810 C 126.646 261.731,126.576 261.667,126.440 261.667 C 126.305 261.667,126.169 261.601,126.139 261.520 C 126.036 261.249,124.067 260.088,122.320 259.269 C 121.365 258.821,120.453 258.390,120.294 258.311 C 120.135 258.231,119.938 258.167,119.856 258.167 C 119.774 258.167,119.417 258.040,119.062 257.885 C 118.707 257.730,118.360 257.590,118.292 257.573 C 118.223 257.556,118.129 257.523,118.083 257.500 C 118.037 257.477,117.931 257.449,117.847 257.438 C 117.763 257.426,117.643 257.366,117.581 257.303 C 117.518 257.241,117.362 257.230,117.234 257.279 C 117.105 257.329,117.000 257.273,117.000 257.157 C 117.000 257.040,116.953 256.992,116.895 257.050 C 116.837 257.108,116.661 257.086,116.504 257.002 C 115.884 256.671,112.811 256.244,112.596 256.460 M176.458 266.701 C 175.225 266.833,171.977 267.594,170.917 267.999 C 170.642 268.104,170.417 268.180,170.417 268.167 C 170.417 268.154,169.875 268.411,169.213 268.738 C 168.551 269.066,167.899 269.333,167.764 269.333 C 167.630 269.333,167.473 269.408,167.416 269.500 C 167.360 269.592,166.878 269.883,166.347 270.147 C 164.946 270.842,163.630 271.714,162.938 272.407 C 162.605 272.739,162.333 272.961,162.333 272.900 C 162.333 272.710,159.984 275.148,159.223 276.127 C 158.592 276.939,157.333 279.265,156.991 280.250 C 156.927 280.433,156.805 280.771,156.720 281.000 C 156.636 281.229,156.572 281.529,156.580 281.667 C 156.588 281.804,156.539 281.956,156.472 282.005 C 156.353 282.091,156.317 282.295,156.046 284.417 C 155.848 285.960,156.021 289.235,156.419 291.500 C 156.938 294.449,157.133 295.452,157.280 295.917 C 157.309 296.008,157.411 296.496,157.506 297.000 C 157.602 297.504,157.914 298.911,158.200 300.126 C 158.742 302.427,158.739 302.529,158.125 302.597 C 157.919 302.620,157.750 302.651,157.750 302.666 C 157.750 302.712,157.105 302.849,156.500 302.932 C 156.179 302.976,155.654 303.091,155.333 303.187 C 154.669 303.386,153.651 303.630,152.917 303.765 C 148.891 304.508,146.786 305.424,146.078 306.738 C 145.902 307.066,145.700 307.333,145.629 307.333 C 145.558 307.333,145.500 307.468,145.500 307.633 C 145.500 307.798,145.437 308.005,145.360 308.092 C 145.109 308.374,144.633 310.466,144.742 310.808 C 144.800 310.990,144.879 311.302,144.917 311.500 C 145.043 312.156,145.208 312.565,145.439 312.796 C 145.564 312.921,145.667 313.122,145.667 313.242 C 145.667 313.432,147.010 314.667,147.216 314.667 C 147.258 314.667,147.583 314.796,147.938 314.953 C 148.293 315.111,148.658 315.252,148.750 315.267 C 148.842 315.282,148.954 315.309,149.000 315.327 C 149.182 315.397,149.780 315.520,150.333 315.601 C 150.654 315.649,151.142 315.753,151.417 315.832 C 151.692 315.912,152.404 315.977,153.000 315.977 C 154.889 315.975,157.564 316.153,158.125 316.318 C 158.423 316.405,158.667 316.439,158.667 316.394 C 158.667 316.348,158.910 316.478,159.208 316.683 C 159.770 317.068,160.666 317.998,160.666 318.196 C 160.666 318.259,160.761 318.409,160.877 318.530 C 161.113 318.777,161.531 319.622,161.601 319.993 C 161.627 320.126,161.721 320.389,161.812 320.576 C 161.902 320.763,162.106 321.328,162.264 321.830 C 162.423 322.332,162.721 323.082,162.927 323.497 C 163.645 324.942,164.770 329.643,165.666 334.943 C 165.746 335.416,165.887 336.091,165.979 336.443 C 166.071 336.795,166.237 337.458,166.346 337.917 C 166.455 338.375,166.641 338.906,166.758 339.097 C 166.875 339.288,167.011 339.663,167.059 339.931 C 167.215 340.794,167.312 341.164,167.433 341.360 C 167.498 341.465,167.578 341.709,167.611 341.901 C 167.807 343.056,167.888 343.333,168.029 343.333 C 168.115 343.333,168.140 343.408,168.084 343.500 C 168.027 343.591,168.098 343.833,168.240 344.037 C 168.383 344.241,168.500 344.507,168.500 344.630 C 168.500 344.883,168.953 345.935,169.722 347.471 C 171.205 350.433,174.684 352.632,176.935 352.030 C 177.340 351.922,177.820 351.833,178.002 351.833 C 178.184 351.833,178.333 351.754,178.333 351.657 C 178.333 351.560,178.408 351.527,178.500 351.583 C 178.592 351.640,178.667 351.602,178.667 351.500 C 178.667 351.398,178.741 351.360,178.832 351.416 C 179.063 351.559,180.569 350.015,180.875 349.322 C 181.515 347.872,181.582 347.535,181.583 345.750 C 181.583 344.742,181.523 343.579,181.450 343.167 C 181.376 342.754,181.278 342.079,181.232 341.667 C 181.136 340.811,180.174 335.482,180.091 335.342 C 180.061 335.292,179.984 334.875,179.920 334.417 C 179.801 333.563,179.765 333.344,179.581 332.333 C 179.522 332.012,179.470 331.637,179.465 331.500 C 179.459 331.362,179.383 331.160,179.296 331.049 C 179.209 330.938,179.174 330.788,179.218 330.716 C 179.261 330.643,179.193 330.096,179.065 329.500 C 178.937 328.904,178.790 328.091,178.739 327.693 C 178.688 327.294,178.578 326.788,178.494 326.568 C 178.410 326.347,178.373 326.167,178.412 326.167 C 178.450 326.167,178.380 325.810,178.255 325.375 C 178.130 324.940,177.976 324.171,177.914 323.667 C 177.718 322.096,176.769 318.140,176.089 316.060 C 175.871 315.395,175.876 315.371,176.223 315.375 C 177.111 315.385,179.126 314.896,180.917 314.236 C 181.558 314.000,182.213 313.808,182.372 313.809 C 182.530 313.811,182.704 313.742,182.757 313.656 C 182.810 313.570,182.968 313.500,183.110 313.500 C 183.251 313.500,183.640 313.380,183.975 313.233 C 184.940 312.810,185.210 312.702,185.875 312.478 C 186.219 312.361,186.500 312.202,186.500 312.123 C 186.500 312.045,186.565 312.021,186.645 312.070 C 186.725 312.119,186.961 312.011,187.171 311.830 C 187.380 311.648,187.646 311.500,187.762 311.500 C 187.878 311.500,188.185 311.395,188.445 311.267 C 190.457 310.273,192.740 309.093,192.833 309.000 C 192.879 308.954,193.442 308.657,194.083 308.339 C 194.725 308.021,195.347 307.667,195.466 307.552 C 195.584 307.437,195.979 307.253,196.343 307.144 C 196.706 307.035,197.087 306.846,197.189 306.723 C 197.291 306.600,197.435 306.500,197.508 306.500 C 197.689 306.500,199.723 305.299,199.852 305.116 C 199.908 305.036,199.984 304.997,200.021 305.027 C 200.132 305.120,203.000 303.158,203.000 302.989 C 203.000 302.904,203.091 302.833,203.203 302.833 C 203.486 302.833,206.527 299.679,206.417 299.500 C 206.367 299.419,206.426 299.293,206.547 299.219 C 206.939 298.979,208.309 296.500,208.049 296.500 C 207.994 296.500,208.067 296.368,208.213 296.207 C 209.337 294.966,210.221 287.206,209.623 283.833 C 209.349 282.289,209.227 281.689,209.174 281.625 C 209.155 281.602,209.121 281.433,209.099 281.250 C 209.025 280.627,208.455 279.000,208.311 279.000 C 208.231 279.000,208.165 278.831,208.162 278.625 C 208.160 278.419,207.898 277.841,207.579 277.341 C 207.261 276.841,207.000 276.352,207.000 276.253 C 207.000 276.155,206.869 275.954,206.708 275.807 C 206.548 275.660,206.233 275.287,206.008 274.978 C 205.393 274.132,203.314 272.159,203.147 272.262 C 203.066 272.312,203.000 272.290,203.000 272.212 C 203.000 272.135,202.756 271.928,202.458 271.753 C 202.160 271.577,201.771 271.298,201.594 271.133 C 201.416 270.968,201.202 270.833,201.119 270.833 C 200.880 270.833,199.774 270.286,199.528 270.046 C 199.406 269.928,199.244 269.869,199.167 269.916 C 199.091 269.963,199.002 269.923,198.970 269.827 C 198.938 269.731,198.744 269.639,198.539 269.624 C 198.334 269.608,198.167 269.545,198.167 269.482 C 198.167 269.373,195.018 268.291,194.500 268.222 C 194.362 268.203,193.597 268.002,192.799 267.774 C 192.002 267.546,190.989 267.315,190.549 267.259 C 190.110 267.204,189.563 267.125,189.333 267.084 C 187.387 266.734,185.832 266.630,182.083 266.599 C 179.700 266.579,177.169 266.625,176.458 266.701 M117.573 277.562 C 118.172 277.779,118.921 278.154,119.237 278.395 C 119.553 278.636,119.891 278.833,119.989 278.833 C 120.087 278.833,120.167 278.921,120.167 279.028 C 120.167 279.135,120.213 279.176,120.269 279.120 C 120.392 278.997,121.167 279.888,121.167 280.154 C 121.167 280.259,121.279 280.387,121.417 280.440 C 121.554 280.492,121.667 280.640,121.667 280.768 C 121.667 280.896,121.742 281.000,121.833 281.000 C 121.925 281.000,122.000 281.078,122.000 281.173 C 122.000 281.269,122.263 281.736,122.583 282.213 C 122.904 282.689,123.167 283.196,123.167 283.339 C 123.167 283.483,123.247 283.680,123.345 283.778 C 123.443 283.876,123.544 284.060,123.570 284.187 C 123.595 284.313,123.659 284.529,123.712 284.667 C 123.871 285.081,124.149 286.057,124.235 286.500 C 124.280 286.729,124.358 287.104,124.409 287.333 C 124.989 289.933,124.845 294.751,124.113 297.250 C 124.006 297.617,123.911 297.954,123.903 298.000 C 123.895 298.046,123.802 298.293,123.696 298.549 C 123.590 298.805,123.453 299.218,123.392 299.466 C 123.190 300.284,121.397 303.862,121.133 303.972 C 121.060 304.003,121.000 304.096,121.000 304.179 C 121.000 304.600,119.296 306.297,117.983 307.183 C 117.397 307.580,116.879 307.947,116.833 308.001 C 116.787 308.054,116.412 308.197,116.000 308.318 C 115.587 308.440,115.063 308.594,114.833 308.661 C 114.032 308.897,111.000 308.623,111.000 308.315 C 111.000 308.233,110.892 308.167,110.760 308.167 C 110.155 308.167,108.466 306.817,107.445 305.520 C 106.914 304.845,105.931 303.259,105.892 303.017 C 105.872 302.888,105.777 302.735,105.682 302.676 C 105.587 302.617,105.475 302.385,105.433 302.159 C 105.392 301.934,105.343 301.731,105.325 301.708 C 105.307 301.685,105.281 301.610,105.268 301.542 C 105.255 301.473,105.196 301.340,105.136 301.246 C 104.173 299.738,103.893 292.648,104.667 289.365 C 104.868 288.512,105.051 287.724,105.073 287.615 C 105.246 286.781,105.405 286.308,105.756 285.583 C 105.978 285.125,106.240 284.563,106.339 284.333 C 106.437 284.104,106.699 283.617,106.922 283.250 C 107.145 282.883,107.420 282.396,107.534 282.167 C 107.781 281.671,109.236 280.167,109.468 280.167 C 109.558 280.167,109.674 280.054,109.727 279.917 C 109.780 279.779,109.930 279.667,110.060 279.667 C 110.191 279.667,110.338 279.562,110.387 279.435 C 110.436 279.307,110.875 279.002,111.363 278.755 C 111.851 278.509,112.587 278.113,113.000 277.875 C 114.413 277.060,115.909 276.958,117.573 277.562 M182.004 284.838 C 182.414 284.910,182.900 285.007,183.083 285.054 C 183.267 285.101,183.792 285.223,184.250 285.326 C 185.119 285.520,186.227 285.885,187.086 286.260 C 187.921 286.623,188.565 286.859,188.916 286.930 C 189.099 286.967,189.274 287.072,189.305 287.165 C 189.336 287.258,189.467 287.333,189.597 287.333 C 189.727 287.333,189.833 287.397,189.833 287.475 C 189.833 287.552,189.976 287.683,190.150 287.766 C 190.775 288.064,191.845 289.184,191.936 289.636 C 192.027 290.096,191.821 290.349,190.013 292.000 C 189.624 292.355,188.536 293.167,188.449 293.167 C 188.409 293.167,187.654 293.576,186.771 294.075 C 185.889 294.575,185.167 294.946,185.167 294.899 C 185.167 294.853,184.960 294.925,184.708 295.059 C 184.156 295.354,183.369 295.686,182.250 296.097 C 181.792 296.266,181.229 296.500,181.000 296.618 C 180.771 296.735,180.471 296.834,180.333 296.838 C 180.196 296.842,179.785 296.986,179.420 297.158 C 179.055 297.331,178.699 297.436,178.628 297.393 C 178.558 297.349,178.500 297.401,178.500 297.508 C 178.500 297.615,178.387 297.659,178.250 297.606 C 178.112 297.554,178.000 297.581,178.000 297.667 C 178.000 297.753,177.887 297.780,177.750 297.727 C 177.612 297.674,177.500 297.695,177.500 297.774 C 177.499 297.852,177.266 297.933,176.981 297.953 C 176.697 297.973,176.375 298.063,176.267 298.153 C 176.090 298.300,175.315 298.525,174.167 298.764 C 173.938 298.811,173.277 298.959,172.698 299.092 C 171.293 299.414,171.172 299.405,171.255 298.975 C 171.293 298.778,171.244 298.272,171.147 297.850 C 171.050 297.428,170.940 296.915,170.902 296.708 C 170.864 296.502,170.795 296.127,170.749 295.875 C 170.396 293.967,170.361 290.323,170.684 289.105 C 170.909 288.252,172.209 286.667,172.682 286.667 C 172.814 286.667,173.186 286.488,173.508 286.269 C 174.098 285.868,175.398 285.360,176.167 285.229 C 176.396 285.190,176.921 285.050,177.333 284.919 C 178.141 284.661,180.734 284.617,182.004 284.838 " stroke="none" fill="#acc464" fill-rule="evenodd"></path><path id="path1" d="M110.970 30.478 L 110.434 30.957 110.643 32.103 C 110.758 32.734,110.993 33.711,111.165 34.275 C 111.768 36.246,111.931 38.420,111.615 40.275 C 111.461 41.178,111.143 43.042,110.910 44.417 C 110.534 46.631,109.599 50.699,108.919 53.083 C 108.167 55.718,107.426 57.984,106.739 59.750 C 106.311 60.850,105.679 62.538,105.333 63.500 C 104.987 64.462,104.275 66.262,103.751 67.500 C 103.226 68.737,102.576 70.275,102.306 70.917 C 102.036 71.558,101.631 72.397,101.407 72.780 C 101.183 73.163,100.999 73.575,100.998 73.696 C 100.997 73.818,99.705 76.467,98.126 79.583 C 96.547 82.700,94.425 86.900,93.410 88.917 C 91.570 92.573,89.597 96.112,88.253 98.167 C 87.863 98.763,87.035 100.037,86.412 101.000 C 85.107 103.018,84.877 103.363,82.558 106.791 C 81.613 108.189,80.474 109.802,80.028 110.375 C 79.582 110.948,78.635 112.279,77.924 113.333 C 77.213 114.388,76.353 115.587,76.013 116.000 C 75.674 116.412,74.907 117.575,74.309 118.583 C 73.712 119.592,72.356 121.879,71.297 123.667 C 58.627 145.044,56.138 157.166,61.926 169.305 C 66.982 179.908,79.030 188.876,92.965 192.408 C 98.510 193.813,102.382 193.885,103.225 192.598 C 104.058 191.327,103.320 190.209,99.489 186.930 C 82.913 172.743,75.447 157.586,77.603 142.500 C 78.474 136.407,81.018 130.897,86.181 123.917 C 86.995 122.817,89.109 119.967,90.879 117.583 C 97.193 109.084,102.619 101.294,104.460 98.083 C 104.828 97.442,105.630 96.054,106.241 95.000 C 112.362 84.449,117.301 71.730,118.737 62.820 C 119.903 55.583,119.382 44.816,117.657 40.485 C 117.459 39.989,117.187 39.208,117.052 38.750 C 116.675 37.474,114.506 32.523,113.906 31.569 C 112.887 29.950,111.950 29.602,110.970 30.478 M239.583 38.446 C 233.491 42.339,229.204 55.668,230.345 67.167 C 231.966 83.492,237.153 94.721,249.476 108.579 C 252.320 111.777,253.813 113.331,261.412 121.000 C 272.864 132.558,276.018 136.668,277.593 142.083 C 280.251 151.229,273.945 165.685,261.234 179.583 C 248.256 193.774,248.106 193.949,246.385 196.917 C 242.180 204.167,241.695 207.151,244.444 208.850 C 246.659 210.219,249.166 209.073,252.501 205.167 C 253.088 204.479,254.022 203.429,254.576 202.833 C 255.130 202.237,256.371 200.889,257.333 199.838 C 259.976 196.950,260.123 196.800,261.917 195.165 C 263.964 193.298,267.921 190.651,271.198 188.955 C 274.154 187.426,276.745 185.794,279.389 183.797 C 280.474 182.978,282.012 181.890,282.806 181.380 C 298.745 171.139,305.875 155.623,300.864 142.083 C 299.325 137.923,296.182 132.472,292.830 128.147 C 288.925 123.109,285.774 119.786,276.836 111.283 C 257.369 92.762,252.459 86.885,248.955 77.917 C 246.084 70.567,245.580 67.040,244.737 48.417 C 244.450 42.072,243.492 38.781,241.826 38.415 C 241.557 38.356,241.294 38.238,241.242 38.154 C 241.068 37.872,240.258 38.014,239.583 38.446 M89.275 93.875 C 88.837 94.639,87.345 97.310,87.204 97.583 C 87.011 97.956,87.799 97.032,88.269 96.333 C 88.818 95.518,90.000 93.423,90.000 93.265 C 90.000 92.949,89.624 93.265,89.275 93.875 M244.250 141.560 C 242.464 142.035,240.311 143.041,237.583 144.675 C 234.952 146.251,234.016 146.901,227.000 152.025 C 223.567 154.532,222.233 155.496,218.583 158.104 C 217.208 159.086,215.708 160.204,215.250 160.588 C 214.792 160.972,213.329 162.021,212.000 162.918 C 207.874 165.705,206.326 166.918,200.083 172.256 C 196.837 175.032,195.634 175.946,193.106 177.560 C 191.840 178.368,190.342 179.360,189.777 179.765 C 189.212 180.170,187.775 181.188,186.583 182.028 C 185.392 182.868,183.854 183.981,183.167 184.501 C 169.593 194.761,160.554 197.158,153.784 192.292 C 147.444 187.734,144.435 184.579,136.583 174.258 C 126.832 161.440,120.066 155.057,113.258 152.251 C 105.807 149.180,99.792 150.176,96.169 155.080 C 87.454 166.878,102.992 184.208,123.079 185.092 C 126.123 185.226,130.396 187.750,134.750 191.986 C 139.867 196.965,142.334 199.025,146.212 201.558 C 158.724 209.731,166.774 210.402,178.051 204.213 C 179.133 203.619,180.366 202.868,180.790 202.544 C 181.215 202.220,181.942 201.731,182.406 201.458 C 184.923 199.979,192.781 193.905,196.662 190.439 C 200.350 187.146,201.043 186.493,203.500 184.000 C 206.314 181.145,209.076 179.199,213.307 177.090 C 217.486 175.007,218.542 174.815,226.167 174.754 C 231.653 174.711,232.395 174.629,237.417 173.505 C 248.468 171.033,254.263 163.715,254.245 152.250 C 254.232 144.037,250.390 139.928,244.250 141.560 M338.333 226.939 C 338.333 227.059,339.005 227.667,339.138 227.667 C 339.186 227.667,339.049 227.479,338.833 227.250 C 338.428 226.818,338.333 226.760,338.333 226.939 M300.588 231.996 C 300.046 232.543,299.636 233.014,299.676 233.042 C 299.717 233.071,300.194 232.622,300.736 232.047 C 301.988 230.717,301.887 230.682,300.588 231.996 M26.731 240.417 C 26.732 241.608,26.758 242.074,26.790 241.451 C 26.823 240.829,26.822 239.854,26.790 239.285 C 26.757 238.716,26.731 239.225,26.731 240.417 M26.709 244.250 C 26.711 244.617,26.745 244.747,26.785 244.540 C 26.824 244.332,26.823 244.032,26.781 243.873 C 26.739 243.714,26.707 243.883,26.709 244.250 M10.709 252.083 C 10.711 252.450,10.745 252.580,10.785 252.373 C 10.824 252.166,10.823 251.866,10.781 251.706 C 10.739 251.547,10.707 251.717,10.709 252.083 M10.705 257.000 C 10.705 257.321,10.740 257.452,10.782 257.292 C 10.823 257.131,10.823 256.869,10.782 256.708 C 10.740 256.548,10.705 256.679,10.705 257.000 M10.705 261.333 C 10.705 261.654,10.740 261.785,10.782 261.625 C 10.823 261.465,10.823 261.202,10.782 261.042 C 10.740 260.881,10.705 261.012,10.705 261.333 M308.794 265.785 C 309.001 265.824,309.301 265.823,309.460 265.781 C 309.620 265.739,309.450 265.707,309.083 265.709 C 308.717 265.711,308.586 265.745,308.794 265.785 M10.542 268.250 C 10.544 268.617,10.578 268.747,10.618 268.540 C 10.658 268.332,10.656 268.032,10.615 267.873 C 10.573 267.714,10.540 267.883,10.542 268.250 M120.333 279.088 C 120.333 279.151,120.521 279.425,120.750 279.697 C 120.979 279.969,121.167 280.141,121.167 280.079 C 121.167 280.016,120.979 279.742,120.750 279.470 C 120.521 279.197,120.333 279.026,120.333 279.088 M10.372 284.000 C 10.372 284.321,10.406 284.452,10.448 284.292 C 10.490 284.131,10.490 283.869,10.448 283.708 C 10.406 283.548,10.372 283.679,10.372 284.000 M10.379 286.500 C 10.379 286.912,10.411 287.081,10.451 286.875 C 10.491 286.669,10.491 286.331,10.451 286.125 C 10.411 285.919,10.379 286.087,10.379 286.500 M10.383 288.500 C 10.383 289.004,10.415 289.210,10.453 288.958 C 10.491 288.706,10.491 288.294,10.453 288.042 C 10.415 287.790,10.383 287.996,10.383 288.500 M309.042 289.115 C 309.202 289.157,309.465 289.157,309.625 289.115 C 309.785 289.073,309.654 289.039,309.333 289.039 C 309.012 289.039,308.881 289.073,309.042 289.115 M318.167 291.969 C 318.167 292.048,318.354 292.199,318.583 292.303 C 318.813 292.407,319.000 292.466,319.000 292.432 C 319.000 292.399,318.813 292.249,318.583 292.099 C 318.354 291.949,318.167 291.890,318.167 291.969 M10.390 298.583 C 10.391 299.317,10.420 299.596,10.456 299.204 C 10.491 298.812,10.490 298.212,10.454 297.871 C 10.419 297.529,10.390 297.850,10.390 298.583 M346.000 298.250 C 346.498 298.754,346.943 299.167,346.989 299.167 C 347.034 299.167,346.665 298.754,346.167 298.250 C 345.669 297.746,345.224 297.333,345.178 297.333 C 345.132 297.333,345.502 297.746,346.000 298.250 M299.372 301.167 C 299.372 301.487,299.406 301.619,299.448 301.458 C 299.490 301.298,299.490 301.035,299.448 300.875 C 299.406 300.715,299.372 300.846,299.372 301.167 M204.606 301.597 C 204.343 301.828,204.161 302.050,204.201 302.090 C 204.241 302.130,204.489 301.939,204.752 301.665 C 205.332 301.059,205.257 301.025,204.606 301.597 M238.917 306.069 C 239.192 306.305,239.485 306.499,239.569 306.499 C 239.750 306.500,239.748 306.498,239.000 306.016 L 238.417 305.639 238.917 306.069 M228.653 318.727 C 228.875 319.001,229.500 319.414,229.500 319.287 C 229.500 319.255,229.256 319.051,228.958 318.833 C 228.623 318.587,228.507 318.547,228.653 318.727 M91.667 323.583 C 91.978 323.904,92.270 324.167,92.315 324.167 C 92.361 324.167,92.144 323.904,91.833 323.583 C 91.522 323.262,91.230 323.000,91.185 323.000 C 91.139 323.000,91.356 323.262,91.667 323.583 M10.709 324.917 C 10.711 325.283,10.745 325.414,10.785 325.206 C 10.824 324.999,10.823 324.699,10.781 324.540 C 10.739 324.380,10.707 324.550,10.709 324.917 M242.960 325.118 C 243.168 325.158,243.468 325.156,243.627 325.115 C 243.786 325.073,243.617 325.040,243.250 325.042 C 242.883 325.044,242.753 325.078,242.960 325.118 M10.872 329.500 C 10.872 329.821,10.906 329.952,10.948 329.792 C 10.990 329.631,10.990 329.369,10.948 329.208 C 10.906 329.048,10.872 329.179,10.872 329.500 M94.167 334.750 C 94.281 334.887,94.449 335.000,94.541 335.000 C 94.634 335.000,94.616 334.889,94.500 334.750 C 94.386 334.612,94.218 334.500,94.126 334.500 C 94.033 334.500,94.051 334.611,94.167 334.750 M28.039 337.167 C 28.039 337.487,28.073 337.619,28.115 337.458 C 28.157 337.298,28.157 337.035,28.115 336.875 C 28.073 336.715,28.039 336.846,28.039 337.167 M83.667 342.552 C 83.667 342.581,83.910 342.825,84.208 343.094 L 84.750 343.583 84.260 343.042 C 83.804 342.537,83.667 342.423,83.667 342.552 M105.833 342.952 C 105.971 343.003,106.233 343.114,106.417 343.198 C 106.745 343.349,106.745 343.348,106.426 343.093 C 106.249 342.950,105.986 342.839,105.843 342.846 C 105.619 342.858,105.617 342.872,105.833 342.952 " stroke="none" fill="#040404" fill-rule="evenodd"></path></g></svg>